<svg class="diagram" viewBox="0 0 600 340" xmlns="http://www.w3.org/2000/svg" role="img" aria-labelledby="ledmTitle">
<title id="ledmTitle">A fixed grid of points around a moving sphere. Points inside the sphere are marked solid, the ring of points just outside its surface is the boundary shell, and everything else is open fluid.</title>
<defs><marker id="ah2" viewBox="0 0 10 10" refX="8" refY="5" markerWidth="6" markerHeight="6" orient="auto"><path d="M0,0 L10,5 L0,10 z" fill="context-stroke"/></marker></defs>
<circle class="sphere" cx="220" cy="170" r="76"/>
<circle class="fluid" cx="24" cy="24" r="2.6"/><circle class="fluid" cx="24" cy="48" r="2.6"/><circle class="fluid" cx="24" cy="72" r="2.6"/><circle class="fluid" cx="24" cy="96" r="2.6"/><circle class="fluid" cx="24" cy="120" r="2.6"/><circle class="fluid" cx="24" cy="144" r="2.6"/><circle class="fluid" cx="24" cy="168" r="2.6"/><circle class="fluid" cx="24" cy="192" r="2.6"/><circle class="fluid" cx="24" cy="216" r="2.6"/><circle class="fluid" cx="24" cy="240" r="2.6"/><circle class="fluid" cx="24" cy="264" r="2.6"/><circle class="fluid" cx="24" cy="288" r="2.6"/><circle class="fluid" cx="24" cy="312" r="2.6"/><circle class="fluid" cx="48" cy="24" r="2.6"/><circle class="fluid" cx="48" cy="48" r="2.6"/><circle class="fluid" cx="48" cy="72" r="2.6"/><circle class="fluid" cx="48" cy="96" r="2.6"/><circle class="fluid" cx="48" cy="120" r="2.6"/><circle class="fluid" cx="48" cy="144" r="2.6"/><circle class="fluid" cx="48" cy="168" r="2.6"/><circle class="fluid" cx="48" cy="192" r="2.6"/><circle class="fluid" cx="48" cy="216" r="2.6"/><circle class="fluid" cx="48" cy="240" r="2.6"/><circle class="fluid" cx="48" cy="264" r="2.6"/><circle class="fluid" cx="48" cy="288" r="2.6"/><circle class="fluid" cx="48" cy="312" r="2.6"/><circle class="fluid" cx="72" cy="24" r="2.6"/><circle class="fluid" cx="72" cy="48" r="2.6"/><circle class="fluid" cx="72" cy="72" r="2.6"/><circle class="fluid" cx="72" cy="96" r="2.6"/><circle class="fluid" cx="72" cy="120" r="2.6"/><circle class="fluid" cx="72" cy="144" r="2.6"/><circle class="fluid" cx="72" cy="168" r="2.6"/><circle class="fluid" cx="72" cy="192" r="2.6"/><circle class="fluid" cx="72" cy="216" r="2.6"/><circle class="fluid" cx="72" cy="240" r="2.6"/><circle class="fluid" cx="72" cy="264" r="2.6"/><circle class="fluid" cx="72" cy="288" r="2.6"/><circle class="fluid" cx="72" cy="312" r="2.6"/><circle class="fluid" cx="96" cy="24" r="2.6"/><circle class="fluid" cx="96" cy="48" r="2.6"/><circle class="fluid" cx="96" cy="72" r="2.6"/><circle class="fluid" cx="96" cy="96" r="2.6"/><circle class="fluid" cx="96" cy="120" r="2.6"/><circle class="fluid" cx="96" cy="144" r="2.6"/><circle class="fluid" cx="96" cy="168" r="2.6"/><circle class="fluid" cx="96" cy="192" r="2.6"/><circle class="fluid" cx="96" cy="216" r="2.6"/><circle class="fluid" cx="96" cy="240" r="2.6"/><circle class="fluid" cx="96" cy="264" r="2.6"/><circle class="fluid" cx="96" cy="288" r="2.6"/><circle class="fluid" cx="96" cy="312" r="2.6"/><circle class="fluid" cx="120" cy="24" r="2.6"/><circle class="fluid" cx="120" cy="48" r="2.6"/><circle class="fluid" cx="120" cy="72" r="2.6"/><circle class="fluid" cx="120" cy="96" r="2.6"/><circle class="fluid" cx="120" cy="120" r="2.6"/><circle class="fluid" cx="120" cy="144" r="2.6"/><circle class="fluid" cx="120" cy="168" r="2.6"/><circle class="fluid" cx="120" cy="192" r="2.6"/><circle class="fluid" cx="120" cy="216" r="2.6"/><circle class="fluid" cx="120" cy="240" r="2.6"/><circle class="fluid" cx="120" cy="264" r="2.6"/><circle class="fluid" cx="120" cy="288" r="2.6"/><circle class="fluid" cx="120" cy="312" r="2.6"/><circle class="fluid" cx="144" cy="24" r="2.6"/><circle class="fluid" cx="144" cy="48" r="2.6"/><circle class="fluid" cx="144" cy="72" r="2.6"/><circle class="fluid" cx="144" cy="96" r="2.6"/><circle class="fluid" cx="144" cy="120" r="2.6"/><circle class="shell" cx="144" cy="144" r="4.6"/><circle class="shell" cx="144" cy="168" r="4.6"/><circle class="shell" cx="144" cy="192" r="4.6"/><circle class="fluid" cx="144" cy="216" r="2.6"/><circle class="fluid" cx="144" cy="240" r="2.6"/><circle class="fluid" cx="144" cy="264" r="2.6"/><circle class="fluid" cx="144" cy="288" r="2.6"/><circle class="fluid" cx="144" cy="312" r="2.6"/><circle class="fluid" cx="168" cy="24" r="2.6"/><circle class="fluid" cx="168" cy="48" r="2.6"/><circle class="fluid" cx="168" cy="72" r="2.6"/><circle class="fluid" cx="168" cy="96" r="2.6"/><circle class="solid" cx="168" cy="120" r="3.2"/><circle class="solid" cx="168" cy="144" r="3.2"/><circle class="solid" cx="168" cy="168" r="3.2"/><circle class="solid" cx="168" cy="192" r="3.2"/><circle class="solid" cx="168" cy="216" r="3.2"/><circle class="shell" cx="168" cy="240" r="4.6"/><circle class="fluid" cx="168" cy="264" r="2.6"/><circle class="fluid" cx="168" cy="288" r="2.6"/><circle class="fluid" cx="168" cy="312" r="2.6"/><circle class="fluid" cx="192" cy="24" r="2.6"/><circle class="fluid" cx="192" cy="48" r="2.6"/><circle class="fluid" cx="192" cy="72" r="2.6"/><circle class="shell" cx="192" cy="96" r="4.6"/><circle class="solid" cx="192" cy="120" r="3.2"/><circle class="solid" cx="192" cy="144" r="3.2"/><circle class="solid" cx="192" cy="168" r="3.2"/><circle class="solid" cx="192" cy="192" r="3.2"/><circle class="solid" cx="192" cy="216" r="3.2"/><circle class="solid" cx="192" cy="240" r="3.2"/><circle class="fluid" cx="192" cy="264" r="2.6"/><circle class="fluid" cx="192" cy="288" r="2.6"/><circle class="fluid" cx="192" cy="312" r="2.6"/><circle class="fluid" cx="216" cy="24" r="2.6"/><circle class="fluid" cx="216" cy="48" r="2.6"/><circle class="fluid" cx="216" cy="72" r="2.6"/><circle class="solid" cx="216" cy="96" r="3.2"/><circle class="solid" cx="216" cy="120" r="3.2"/><circle class="solid" cx="216" cy="144" r="3.2"/><circle class="solid" cx="216" cy="168" r="3.2"/><circle class="solid" cx="216" cy="192" r="3.2"/><circle class="solid" cx="216" cy="216" r="3.2"/><circle class="solid" cx="216" cy="240" r="3.2"/><circle class="fluid" cx="216" cy="264" r="2.6"/><circle class="fluid" cx="216" cy="288" r="2.6"/><circle class="fluid" cx="216" cy="312" r="2.6"/><circle class="fluid" cx="240" cy="24" r="2.6"/><circle class="fluid" cx="240" cy="48" r="2.6"/><circle class="fluid" cx="240" cy="72" r="2.6"/><circle class="shell" cx="240" cy="96" r="4.6"/><circle class="solid" cx="240" cy="120" r="3.2"/><circle class="solid" cx="240" cy="144" r="3.2"/><circle class="solid" cx="240" cy="168" r="3.2"/><circle class="solid" cx="240" cy="192" r="3.2"/><circle class="solid" cx="240" cy="216" r="3.2"/><circle class="solid" cx="240" cy="240" r="3.2"/><circle class="fluid" cx="240" cy="264" r="2.6"/><circle class="fluid" cx="240" cy="288" r="2.6"/><circle class="fluid" cx="240" cy="312" r="2.6"/><circle class="fluid" cx="264" cy="24" r="2.6"/><circle class="fluid" cx="264" cy="48" r="2.6"/><circle class="fluid" cx="264" cy="72" r="2.6"/><circle class="shell" cx="264" cy="96" r="4.6"/><circle class="solid" cx="264" cy="120" r="3.2"/><circle class="solid" cx="264" cy="144" r="3.2"/><circle class="solid" cx="264" cy="168" r="3.2"/><circle class="solid" cx="264" cy="192" r="3.2"/><circle class="solid" cx="264" cy="216" r="3.2"/><circle class="shell" cx="264" cy="240" r="4.6"/><circle class="fluid" cx="264" cy="264" r="2.6"/><circle class="fluid" cx="264" cy="288" r="2.6"/><circle class="fluid" cx="264" cy="312" r="2.6"/><circle class="fluid" cx="288" cy="24" r="2.6"/><circle class="fluid" cx="288" cy="48" r="2.6"/><circle class="fluid" cx="288" cy="72" r="2.6"/><circle class="fluid" cx="288" cy="96" r="2.6"/><circle class="shell" cx="288" cy="120" r="4.6"/><circle class="solid" cx="288" cy="144" r="3.2"/><circle class="solid" cx="288" cy="168" r="3.2"/><circle class="solid" cx="288" cy="192" r="3.2"/><circle class="shell" cx="288" cy="216" r="4.6"/><circle class="fluid" cx="288" cy="240" r="2.6"/><circle class="fluid" cx="288" cy="264" r="2.6"/><circle class="fluid" cx="288" cy="288" r="2.6"/><circle class="fluid" cx="288" cy="312" r="2.6"/><circle class="fluid" cx="312" cy="24" r="2.6"/><circle class="fluid" cx="312" cy="48" r="2.6"/><circle class="fluid" cx="312" cy="72" r="2.6"/><circle class="fluid" cx="312" cy="96" r="2.6"/><circle class="fluid" cx="312" cy="120" r="2.6"/><circle class="fluid" cx="312" cy="144" r="2.6"/><circle class="fluid" cx="312" cy="168" r="2.6"/><circle class="fluid" cx="312" cy="192" r="2.6"/><circle class="fluid" cx="312" cy="216" r="2.6"/><circle class="fluid" cx="312" cy="240" r="2.6"/><circle class="fluid" cx="312" cy="264" r="2.6"/><circle class="fluid" cx="312" cy="288" r="2.6"/><circle class="fluid" cx="312" cy="312" r="2.6"/><circle class="fluid" cx="336" cy="24" r="2.6"/><circle class="fluid" cx="336" cy="48" r="2.6"/><circle class="fluid" cx="336" cy="72" r="2.6"/><circle class="fluid" cx="336" cy="96" r="2.6"/><circle class="fluid" cx="336" cy="120" r="2.6"/><circle class="fluid" cx="336" cy="144" r="2.6"/><circle class="fluid" cx="336" cy="168" r="2.6"/><circle class="fluid" cx="336" cy="192" r="2.6"/><circle class="fluid" cx="336" cy="216" r="2.6"/><circle class="fluid" cx="336" cy="240" r="2.6"/><circle class="fluid" cx="336" cy="264" r="2.6"/><circle class="fluid" cx="336" cy="288" r="2.6"/><circle class="fluid" cx="336" cy="312" r="2.6"/><circle class="fluid" cx="360" cy="24" r="2.6"/><circle class="fluid" cx="360" cy="48" r="2.6"/><circle class="fluid" cx="360" cy="72" r="2.6"/><circle class="fluid" cx="360" cy="96" r="2.6"/><circle class="fluid" cx="360" cy="120" r="2.6"/><circle class="fluid" cx="360" cy="144" r="2.6"/><circle class="fluid" cx="360" cy="168" r="2.6"/><circle class="fluid" cx="360" cy="192" r="2.6"/><circle class="fluid" cx="360" cy="216" r="2.6"/><circle class="fluid" cx="360" cy="240" r="2.6"/><circle class="fluid" cx="360" cy="264" r="2.6"/><circle class="fluid" cx="360" cy="288" r="2.6"/><circle class="fluid" cx="360" cy="312" r="2.6"/><circle class="fluid" cx="384" cy="24" r="2.6"/><circle class="fluid" cx="384" cy="48" r="2.6"/><circle class="fluid" cx="384" cy="72" r="2.6"/><circle class="fluid" cx="384" cy="96" r="2.6"/><circle class="fluid" cx="384" cy="120" r="2.6"/><circle class="fluid" cx="384" cy="144" r="2.6"/><circle class="fluid" cx="384" cy="168" r="2.6"/><circle class="fluid" cx="384" cy="192" r="2.6"/><circle class="fluid" cx="384" cy="216" r="2.6"/><circle class="fluid" cx="384" cy="240" r="2.6"/><circle class="fluid" cx="384" cy="264" r="2.6"/><circle class="fluid" cx="384" cy="288" r="2.6"/><circle class="fluid" cx="384" cy="312" r="2.6"/>
<line class="motion" x1="220" y1="192" x2="220" y2="140" marker-end="url(#ah2)"/>
<g class="labels">
<circle class="solid" cx="420" cy="100" r="3.6"/><text x="434" y="104">Solid interior</text>
<text x="434" y="120" class="sub">set to the body's own velocity</text>
<circle class="shell" cx="420" cy="158" r="4.6"/><text x="434" y="162">Boundary shell</text>
<text x="434" y="178" class="sub">fluid here moves with the surface</text>
<circle class="fluid" cx="420" cy="216" r="2.8"/><text x="434" y="220">Open fluid</text>
<text x="434" y="236" class="sub">reconstructed from the tracks</text>
<text x="434" y="252" class="sub">and kept divergence-free</text>
</g>
</svg>